# xmcd
#
# Track frame offsets:
# 150
# 14027
# 26524
# 44205
# 59492
# 73390
# 89120
# 102278
# 117277
# 127656
# 141509
# 155293
# 169887
# 186348
#
# Disc length: 2556 seconds
#
# Revision: 0
# Processed by: cddbd v1.4PL0 Copyright (c) Steve Scherf et al.
# Submitted via: Audion 2.6.0 (http://www.panic.com/audion/)
#
DISCID=d709fa0e
DTITLE=ut7it - uyuih
DYEAR=1900
DGENRE=
TTITLE0=jkb
TTITLE1=jkb
TTITLE2=b
TTITLE3=bk
TTITLE4=jb
TTITLE5=jkb
TTITLE6=jkbk
TTITLE7=jb
TTITLE8=jnj
TTITLE9=bjk
TTITLE10=b
TTITLE11=jk
TTITLE12=jkb
TTITLE13=jb
EXTD=
EXTT0=
EXTT1=
EXTT2=
EXTT3=
EXTT4=
EXTT5=
EXTT6=
EXTT7=
EXTT8=
EXTT9=
EXTT10=
EXTT11=
EXTT12=
EXTT13=
PLAYORDER=
